%TF.GenerationSoftware,KiCad,Pcbnew,(6.0.6)*%
%TF.CreationDate,2022-07-10T15:34:21+02:00*%
%TF.ProjectId,epd,6570642e-6b69-4636-9164-5f7063625858,rev?*%
%TF.SameCoordinates,Original*%
%TF.FileFunction,Legend,Bot*%
%TF.FilePolarity,Positive*%
%FSLAX46Y46*%
G04 Gerber Fmt 4.6, Leading zero omitted, Abs format (unit mm)*
G04 Created by KiCad (PCBNEW (6.0.6)) date 2022-07-10 15:34:21*
%MOMM*%
%LPD*%
G01*
G04 APERTURE LIST*
G04 Aperture macros list*
%AMRoundRect*
0 Rectangle with rounded corners*
0 $1 Rounding radius*
0 $2 $3 $4 $5 $6 $7 $8 $9 X,Y pos of 4 corners*
0 Add a 4 corners polygon primitive as box body*
4,1,4,$2,$3,$4,$5,$6,$7,$8,$9,$2,$3,0*
0 Add four circle primitives for the rounded corners*
1,1,$1+$1,$2,$3*
1,1,$1+$1,$4,$5*
1,1,$1+$1,$6,$7*
1,1,$1+$1,$8,$9*
0 Add four rect primitives between the rounded corners*
20,1,$1+$1,$2,$3,$4,$5,0*
20,1,$1+$1,$4,$5,$6,$7,0*
20,1,$1+$1,$6,$7,$8,$9,0*
20,1,$1+$1,$8,$9,$2,$3,0*%
G04 Aperture macros list end*
%ADD10C,0.150000*%
%ADD11C,0.120000*%
%ADD12C,0.127000*%
%ADD13RoundRect,0.225000X-0.250000X0.225000X-0.250000X-0.225000X0.250000X-0.225000X0.250000X0.225000X0*%
%ADD14R,0.900000X1.200000*%
%ADD15RoundRect,0.225000X0.250000X-0.225000X0.250000X0.225000X-0.250000X0.225000X-0.250000X-0.225000X0*%
%ADD16R,0.300000X1.300000*%
%ADD17R,1.800000X2.200000*%
%ADD18O,1.400000X1.700000*%
%ADD19C,0.600000*%
G04 APERTURE END LIST*
D10*
%TO.C,C14*%
X163028034Y-87751081D02*
X163066129Y-87712986D01*
X163104224Y-87598700D01*
X163104224Y-87522510D01*
X163066129Y-87408224D01*
X162989939Y-87332033D01*
X162913748Y-87293938D01*
X162761367Y-87255843D01*
X162647081Y-87255843D01*
X162494700Y-87293938D01*
X162418510Y-87332033D01*
X162342320Y-87408224D01*
X162304224Y-87522510D01*
X162304224Y-87598700D01*
X162342320Y-87712986D01*
X162380415Y-87751081D01*
X163104224Y-88512986D02*
X163104224Y-88055843D01*
X163104224Y-88284414D02*
X162304224Y-88284414D01*
X162418510Y-88208224D01*
X162494700Y-88132033D01*
X162532796Y-88055843D01*
X162570891Y-89198700D02*
X163104224Y-89198700D01*
X162266129Y-89008224D02*
X162837558Y-88817748D01*
X162837558Y-89312986D01*
%TO.C,C10*%
X157778034Y-82551081D02*
X157816129Y-82512986D01*
X157854224Y-82398700D01*
X157854224Y-82322510D01*
X157816129Y-82208224D01*
X157739939Y-82132033D01*
X157663748Y-82093938D01*
X157511367Y-82055843D01*
X157397081Y-82055843D01*
X157244700Y-82093938D01*
X157168510Y-82132033D01*
X157092320Y-82208224D01*
X157054224Y-82322510D01*
X157054224Y-82398700D01*
X157092320Y-82512986D01*
X157130415Y-82551081D01*
X157854224Y-83312986D02*
X157854224Y-82855843D01*
X157854224Y-83084414D02*
X157054224Y-83084414D01*
X157168510Y-83008224D01*
X157244700Y-82932033D01*
X157282796Y-82855843D01*
X157054224Y-83808224D02*
X157054224Y-83884414D01*
X157092320Y-83960605D01*
X157130415Y-83998700D01*
X157206605Y-84036795D01*
X157358986Y-84074891D01*
X157549462Y-84074891D01*
X157701843Y-84036795D01*
X157778034Y-83998700D01*
X157816129Y-83960605D01*
X157854224Y-83884414D01*
X157854224Y-83808224D01*
X157816129Y-83732033D01*
X157778034Y-83693938D01*
X157701843Y-83655843D01*
X157549462Y-83617748D01*
X157358986Y-83617748D01*
X157206605Y-83655843D01*
X157130415Y-83693938D01*
X157092320Y-83732033D01*
X157054224Y-83808224D01*
%TO.C,D1*%
X155054343Y-80936676D02*
X155054343Y-80136676D01*
X154863867Y-80136676D01*
X154749581Y-80174772D01*
X154673391Y-80250962D01*
X154635296Y-80327152D01*
X154597200Y-80479533D01*
X154597200Y-80593819D01*
X154635296Y-80746200D01*
X154673391Y-80822391D01*
X154749581Y-80898581D01*
X154863867Y-80936676D01*
X155054343Y-80936676D01*
X153835296Y-80936676D02*
X154292439Y-80936676D01*
X154063867Y-80936676D02*
X154063867Y-80136676D01*
X154140058Y-80250962D01*
X154216248Y-80327152D01*
X154292439Y-80365248D01*
%TO.C,C8*%
X155278034Y-83262986D02*
X155316129Y-83224891D01*
X155354224Y-83110605D01*
X155354224Y-83034414D01*
X155316129Y-82920129D01*
X155239939Y-82843938D01*
X155163748Y-82805843D01*
X155011367Y-82767748D01*
X154897081Y-82767748D01*
X154744700Y-82805843D01*
X154668510Y-82843938D01*
X154592320Y-82920129D01*
X154554224Y-83034414D01*
X154554224Y-83110605D01*
X154592320Y-83224891D01*
X154630415Y-83262986D01*
X154897081Y-83720129D02*
X154858986Y-83643938D01*
X154820891Y-83605843D01*
X154744700Y-83567748D01*
X154706605Y-83567748D01*
X154630415Y-83605843D01*
X154592320Y-83643938D01*
X154554224Y-83720129D01*
X154554224Y-83872510D01*
X154592320Y-83948700D01*
X154630415Y-83986795D01*
X154706605Y-84024891D01*
X154744700Y-84024891D01*
X154820891Y-83986795D01*
X154858986Y-83948700D01*
X154897081Y-83872510D01*
X154897081Y-83720129D01*
X154935177Y-83643938D01*
X154973272Y-83605843D01*
X155049462Y-83567748D01*
X155201843Y-83567748D01*
X155278034Y-83605843D01*
X155316129Y-83643938D01*
X155354224Y-83720129D01*
X155354224Y-83872510D01*
X155316129Y-83948700D01*
X155278034Y-83986795D01*
X155201843Y-84024891D01*
X155049462Y-84024891D01*
X154973272Y-83986795D01*
X154935177Y-83948700D01*
X154897081Y-83872510D01*
%TO.C,C13*%
X162128034Y-82551081D02*
X162166129Y-82512986D01*
X162204224Y-82398700D01*
X162204224Y-82322510D01*
X162166129Y-82208224D01*
X162089939Y-82132033D01*
X162013748Y-82093938D01*
X161861367Y-82055843D01*
X161747081Y-82055843D01*
X161594700Y-82093938D01*
X161518510Y-82132033D01*
X161442320Y-82208224D01*
X161404224Y-82322510D01*
X161404224Y-82398700D01*
X161442320Y-82512986D01*
X161480415Y-82551081D01*
X162204224Y-83312986D02*
X162204224Y-82855843D01*
X162204224Y-83084414D02*
X161404224Y-83084414D01*
X161518510Y-83008224D01*
X161594700Y-82932033D01*
X161632796Y-82855843D01*
X161404224Y-83579652D02*
X161404224Y-84074891D01*
X161708986Y-83808224D01*
X161708986Y-83922510D01*
X161747081Y-83998700D01*
X161785177Y-84036795D01*
X161861367Y-84074891D01*
X162051843Y-84074891D01*
X162128034Y-84036795D01*
X162166129Y-83998700D01*
X162204224Y-83922510D01*
X162204224Y-83693938D01*
X162166129Y-83617748D01*
X162128034Y-83579652D01*
%TO.C,C1*%
X152078034Y-88562986D02*
X152116129Y-88524891D01*
X152154224Y-88410605D01*
X152154224Y-88334414D01*
X152116129Y-88220129D01*
X152039939Y-88143938D01*
X151963748Y-88105843D01*
X151811367Y-88067748D01*
X151697081Y-88067748D01*
X151544700Y-88105843D01*
X151468510Y-88143938D01*
X151392320Y-88220129D01*
X151354224Y-88334414D01*
X151354224Y-88410605D01*
X151392320Y-88524891D01*
X151430415Y-88562986D01*
X152154224Y-89324891D02*
X152154224Y-88867748D01*
X152154224Y-89096319D02*
X151354224Y-89096319D01*
X151468510Y-89020129D01*
X151544700Y-88943938D01*
X151582796Y-88867748D01*
%TO.C,C9*%
X156178034Y-88562986D02*
X156216129Y-88524891D01*
X156254224Y-88410605D01*
X156254224Y-88334414D01*
X156216129Y-88220129D01*
X156139939Y-88143938D01*
X156063748Y-88105843D01*
X155911367Y-88067748D01*
X155797081Y-88067748D01*
X155644700Y-88105843D01*
X155568510Y-88143938D01*
X155492320Y-88220129D01*
X155454224Y-88334414D01*
X155454224Y-88410605D01*
X155492320Y-88524891D01*
X155530415Y-88562986D01*
X156254224Y-88943938D02*
X156254224Y-89096319D01*
X156216129Y-89172510D01*
X156178034Y-89210605D01*
X156063748Y-89286795D01*
X155911367Y-89324891D01*
X155606605Y-89324891D01*
X155530415Y-89286795D01*
X155492320Y-89248700D01*
X155454224Y-89172510D01*
X155454224Y-89020129D01*
X155492320Y-88943938D01*
X155530415Y-88905843D01*
X155606605Y-88867748D01*
X155797081Y-88867748D01*
X155873272Y-88905843D01*
X155911367Y-88943938D01*
X155949462Y-89020129D01*
X155949462Y-89172510D01*
X155911367Y-89248700D01*
X155873272Y-89286795D01*
X155797081Y-89324891D01*
%TO.C,C5*%
X150478034Y-88562986D02*
X150516129Y-88524891D01*
X150554224Y-88410605D01*
X150554224Y-88334414D01*
X150516129Y-88220129D01*
X150439939Y-88143938D01*
X150363748Y-88105843D01*
X150211367Y-88067748D01*
X150097081Y-88067748D01*
X149944700Y-88105843D01*
X149868510Y-88143938D01*
X149792320Y-88220129D01*
X149754224Y-88334414D01*
X149754224Y-88410605D01*
X149792320Y-88524891D01*
X149830415Y-88562986D01*
X149754224Y-89286795D02*
X149754224Y-88905843D01*
X150135177Y-88867748D01*
X150097081Y-88905843D01*
X150058986Y-88982033D01*
X150058986Y-89172510D01*
X150097081Y-89248700D01*
X150135177Y-89286795D01*
X150211367Y-89324891D01*
X150401843Y-89324891D01*
X150478034Y-89286795D01*
X150516129Y-89248700D01*
X150554224Y-89172510D01*
X150554224Y-88982033D01*
X150516129Y-88905843D01*
X150478034Y-88867748D01*
%TO.C,C12*%
X160478034Y-87801081D02*
X160516129Y-87762986D01*
X160554224Y-87648700D01*
X160554224Y-87572510D01*
X160516129Y-87458224D01*
X160439939Y-87382033D01*
X160363748Y-87343938D01*
X160211367Y-87305843D01*
X160097081Y-87305843D01*
X159944700Y-87343938D01*
X159868510Y-87382033D01*
X159792320Y-87458224D01*
X159754224Y-87572510D01*
X159754224Y-87648700D01*
X159792320Y-87762986D01*
X159830415Y-87801081D01*
X160554224Y-88562986D02*
X160554224Y-88105843D01*
X160554224Y-88334414D02*
X159754224Y-88334414D01*
X159868510Y-88258224D01*
X159944700Y-88182033D01*
X159982796Y-88105843D01*
X159830415Y-88867748D02*
X159792320Y-88905843D01*
X159754224Y-88982033D01*
X159754224Y-89172510D01*
X159792320Y-89248700D01*
X159830415Y-89286795D01*
X159906605Y-89324891D01*
X159982796Y-89324891D01*
X160097081Y-89286795D01*
X160554224Y-88829652D01*
X160554224Y-89324891D01*
%TO.C,C7*%
X153678034Y-83262986D02*
X153716129Y-83224891D01*
X153754224Y-83110605D01*
X153754224Y-83034414D01*
X153716129Y-82920129D01*
X153639939Y-82843938D01*
X153563748Y-82805843D01*
X153411367Y-82767748D01*
X153297081Y-82767748D01*
X153144700Y-82805843D01*
X153068510Y-82843938D01*
X152992320Y-82920129D01*
X152954224Y-83034414D01*
X152954224Y-83110605D01*
X152992320Y-83224891D01*
X153030415Y-83262986D01*
X152954224Y-83529652D02*
X152954224Y-84062986D01*
X153754224Y-83720129D01*
%TO.C,C11*%
X160528034Y-82551081D02*
X160566129Y-82512986D01*
X160604224Y-82398700D01*
X160604224Y-82322510D01*
X160566129Y-82208224D01*
X160489939Y-82132033D01*
X160413748Y-82093938D01*
X160261367Y-82055843D01*
X160147081Y-82055843D01*
X159994700Y-82093938D01*
X159918510Y-82132033D01*
X159842320Y-82208224D01*
X159804224Y-82322510D01*
X159804224Y-82398700D01*
X159842320Y-82512986D01*
X159880415Y-82551081D01*
X160604224Y-83312986D02*
X160604224Y-82855843D01*
X160604224Y-83084414D02*
X159804224Y-83084414D01*
X159918510Y-83008224D01*
X159994700Y-82932033D01*
X160032796Y-82855843D01*
X160604224Y-84074891D02*
X160604224Y-83617748D01*
X160604224Y-83846319D02*
X159804224Y-83846319D01*
X159918510Y-83770129D01*
X159994700Y-83693938D01*
X160032796Y-83617748D01*
%TO.C,C2*%
X150478034Y-83262986D02*
X150516129Y-83224891D01*
X150554224Y-83110605D01*
X150554224Y-83034414D01*
X150516129Y-82920129D01*
X150439939Y-82843938D01*
X150363748Y-82805843D01*
X150211367Y-82767748D01*
X150097081Y-82767748D01*
X149944700Y-82805843D01*
X149868510Y-82843938D01*
X149792320Y-82920129D01*
X149754224Y-83034414D01*
X149754224Y-83110605D01*
X149792320Y-83224891D01*
X149830415Y-83262986D01*
X149830415Y-83567748D02*
X149792320Y-83605843D01*
X149754224Y-83682033D01*
X149754224Y-83872510D01*
X149792320Y-83948700D01*
X149830415Y-83986795D01*
X149906605Y-84024891D01*
X149982796Y-84024891D01*
X150097081Y-83986795D01*
X150554224Y-83529652D01*
X150554224Y-84024891D01*
%TO.C,C3*%
X152078034Y-83262986D02*
X152116129Y-83224891D01*
X152154224Y-83110605D01*
X152154224Y-83034414D01*
X152116129Y-82920129D01*
X152039939Y-82843938D01*
X151963748Y-82805843D01*
X151811367Y-82767748D01*
X151697081Y-82767748D01*
X151544700Y-82805843D01*
X151468510Y-82843938D01*
X151392320Y-82920129D01*
X151354224Y-83034414D01*
X151354224Y-83110605D01*
X151392320Y-83224891D01*
X151430415Y-83262986D01*
X151354224Y-83529652D02*
X151354224Y-84024891D01*
X151658986Y-83758224D01*
X151658986Y-83872510D01*
X151697081Y-83948700D01*
X151735177Y-83986795D01*
X151811367Y-84024891D01*
X152001843Y-84024891D01*
X152078034Y-83986795D01*
X152116129Y-83948700D01*
X152154224Y-83872510D01*
X152154224Y-83643938D01*
X152116129Y-83567748D01*
X152078034Y-83529652D01*
%TO.C,C6*%
X153678034Y-88562986D02*
X153716129Y-88524891D01*
X153754224Y-88410605D01*
X153754224Y-88334414D01*
X153716129Y-88220129D01*
X153639939Y-88143938D01*
X153563748Y-88105843D01*
X153411367Y-88067748D01*
X153297081Y-88067748D01*
X153144700Y-88105843D01*
X153068510Y-88143938D01*
X152992320Y-88220129D01*
X152954224Y-88334414D01*
X152954224Y-88410605D01*
X152992320Y-88524891D01*
X153030415Y-88562986D01*
X152954224Y-89248700D02*
X152954224Y-89096319D01*
X152992320Y-89020129D01*
X153030415Y-88982033D01*
X153144700Y-88905843D01*
X153297081Y-88867748D01*
X153601843Y-88867748D01*
X153678034Y-88905843D01*
X153716129Y-88943938D01*
X153754224Y-89020129D01*
X153754224Y-89172510D01*
X153716129Y-89248700D01*
X153678034Y-89286795D01*
X153601843Y-89324891D01*
X153411367Y-89324891D01*
X153335177Y-89286795D01*
X153297081Y-89248700D01*
X153258986Y-89172510D01*
X153258986Y-89020129D01*
X153297081Y-88943938D01*
X153335177Y-88905843D01*
X153411367Y-88867748D01*
%TO.C,C4*%
X157778034Y-88562986D02*
X157816129Y-88524891D01*
X157854224Y-88410605D01*
X157854224Y-88334414D01*
X157816129Y-88220129D01*
X157739939Y-88143938D01*
X157663748Y-88105843D01*
X157511367Y-88067748D01*
X157397081Y-88067748D01*
X157244700Y-88105843D01*
X157168510Y-88143938D01*
X157092320Y-88220129D01*
X157054224Y-88334414D01*
X157054224Y-88410605D01*
X157092320Y-88524891D01*
X157130415Y-88562986D01*
X157320891Y-89248700D02*
X157854224Y-89248700D01*
X157016129Y-89058224D02*
X157587558Y-88867748D01*
X157587558Y-89362986D01*
%TO.C,J1*%
X158083333Y-97652380D02*
X158083333Y-98366666D01*
X158130952Y-98509523D01*
X158226190Y-98604761D01*
X158369047Y-98652380D01*
X158464285Y-98652380D01*
X157083333Y-98652380D02*
X157654761Y-98652380D01*
X157369047Y-98652380D02*
X157369047Y-97652380D01*
X157464285Y-97795238D01*
X157559523Y-97890476D01*
X157654761Y-97938095D01*
%TO.C,C16*%
X165528034Y-82551081D02*
X165566129Y-82512986D01*
X165604224Y-82398700D01*
X165604224Y-82322510D01*
X165566129Y-82208224D01*
X165489939Y-82132033D01*
X165413748Y-82093938D01*
X165261367Y-82055843D01*
X165147081Y-82055843D01*
X164994700Y-82093938D01*
X164918510Y-82132033D01*
X164842320Y-82208224D01*
X164804224Y-82322510D01*
X164804224Y-82398700D01*
X164842320Y-82512986D01*
X164880415Y-82551081D01*
X165604224Y-83312986D02*
X165604224Y-82855843D01*
X165604224Y-83084414D02*
X164804224Y-83084414D01*
X164918510Y-83008224D01*
X164994700Y-82932033D01*
X165032796Y-82855843D01*
X164804224Y-83998700D02*
X164804224Y-83846319D01*
X164842320Y-83770129D01*
X164880415Y-83732033D01*
X164994700Y-83655843D01*
X165147081Y-83617748D01*
X165451843Y-83617748D01*
X165528034Y-83655843D01*
X165566129Y-83693938D01*
X165604224Y-83770129D01*
X165604224Y-83922510D01*
X165566129Y-83998700D01*
X165528034Y-84036795D01*
X165451843Y-84074891D01*
X165261367Y-84074891D01*
X165185177Y-84036795D01*
X165147081Y-83998700D01*
X165108986Y-83922510D01*
X165108986Y-83770129D01*
X165147081Y-83693938D01*
X165185177Y-83655843D01*
X165261367Y-83617748D01*
%TO.C,C17*%
X165478034Y-87701081D02*
X165516129Y-87662986D01*
X165554224Y-87548700D01*
X165554224Y-87472510D01*
X165516129Y-87358224D01*
X165439939Y-87282033D01*
X165363748Y-87243938D01*
X165211367Y-87205843D01*
X165097081Y-87205843D01*
X164944700Y-87243938D01*
X164868510Y-87282033D01*
X164792320Y-87358224D01*
X164754224Y-87472510D01*
X164754224Y-87548700D01*
X164792320Y-87662986D01*
X164830415Y-87701081D01*
X165554224Y-88462986D02*
X165554224Y-88005843D01*
X165554224Y-88234414D02*
X164754224Y-88234414D01*
X164868510Y-88158224D01*
X164944700Y-88082033D01*
X164982796Y-88005843D01*
X164754224Y-88729652D02*
X164754224Y-89262986D01*
X165554224Y-88920129D01*
%TO.C,C15*%
X163828034Y-82551081D02*
X163866129Y-82512986D01*
X163904224Y-82398700D01*
X163904224Y-82322510D01*
X163866129Y-82208224D01*
X163789939Y-82132033D01*
X163713748Y-82093938D01*
X163561367Y-82055843D01*
X163447081Y-82055843D01*
X163294700Y-82093938D01*
X163218510Y-82132033D01*
X163142320Y-82208224D01*
X163104224Y-82322510D01*
X163104224Y-82398700D01*
X163142320Y-82512986D01*
X163180415Y-82551081D01*
X163904224Y-83312986D02*
X163904224Y-82855843D01*
X163904224Y-83084414D02*
X163104224Y-83084414D01*
X163218510Y-83008224D01*
X163294700Y-82932033D01*
X163332796Y-82855843D01*
X163104224Y-84036795D02*
X163104224Y-83655843D01*
X163485177Y-83617748D01*
X163447081Y-83655843D01*
X163408986Y-83732033D01*
X163408986Y-83922510D01*
X163447081Y-83998700D01*
X163485177Y-84036795D01*
X163561367Y-84074891D01*
X163751843Y-84074891D01*
X163828034Y-84036795D01*
X163866129Y-83998700D01*
X163904224Y-83922510D01*
X163904224Y-83732033D01*
X163866129Y-83655843D01*
X163828034Y-83617748D01*
%TO.C,J2*%
X145982380Y-69966666D02*
X146696666Y-69966666D01*
X146839523Y-69919047D01*
X146934761Y-69823809D01*
X146982380Y-69680952D01*
X146982380Y-69585714D01*
X146077619Y-70395238D02*
X146030000Y-70442857D01*
X145982380Y-70538095D01*
X145982380Y-70776190D01*
X146030000Y-70871428D01*
X146077619Y-70919047D01*
X146172857Y-70966666D01*
X146268095Y-70966666D01*
X146410952Y-70919047D01*
X146982380Y-70347619D01*
X146982380Y-70966666D01*
D11*
%TO.C,C14*%
X162202320Y-90859192D02*
X162202320Y-91140352D01*
X163222320Y-90859192D02*
X163222320Y-91140352D01*
%TO.C,C10*%
X158002320Y-85684192D02*
X158002320Y-85965352D01*
X156982320Y-85684192D02*
X156982320Y-85965352D01*
%TO.C,D1*%
X159942320Y-81574772D02*
X156042320Y-81574772D01*
X159942320Y-79574772D02*
X159942320Y-81574772D01*
X159942320Y-79574772D02*
X156042320Y-79574772D01*
%TO.C,C8*%
X154482320Y-85634192D02*
X154482320Y-85915352D01*
X155502320Y-85634192D02*
X155502320Y-85915352D01*
%TO.C,C13*%
X161352320Y-85965352D02*
X161352320Y-85684192D01*
X162372320Y-85965352D02*
X162372320Y-85684192D01*
%TO.C,C1*%
X152302320Y-91215352D02*
X152302320Y-90934192D01*
X151282320Y-91215352D02*
X151282320Y-90934192D01*
%TO.C,C9*%
X156402320Y-90934192D02*
X156402320Y-91215352D01*
X155382320Y-90934192D02*
X155382320Y-91215352D01*
%TO.C,C5*%
X150702320Y-91215352D02*
X150702320Y-90934192D01*
X149682320Y-91215352D02*
X149682320Y-90934192D01*
%TO.C,C12*%
X159702320Y-90884192D02*
X159702320Y-91165352D01*
X160722320Y-90884192D02*
X160722320Y-91165352D01*
%TO.C,C7*%
X152882320Y-85634192D02*
X152882320Y-85915352D01*
X153902320Y-85634192D02*
X153902320Y-85915352D01*
%TO.C,C11*%
X160722320Y-85965352D02*
X160722320Y-85684192D01*
X159702320Y-85965352D02*
X159702320Y-85684192D01*
%TO.C,C2*%
X149682320Y-85634508D02*
X149682320Y-85915668D01*
X150702320Y-85634508D02*
X150702320Y-85915668D01*
%TO.C,C3*%
X152302320Y-85634508D02*
X152302320Y-85915668D01*
X151282320Y-85634508D02*
X151282320Y-85915668D01*
%TO.C,C6*%
X153902320Y-90934192D02*
X153902320Y-91215352D01*
X152882320Y-90934192D02*
X152882320Y-91215352D01*
%TO.C,C4*%
X158002320Y-90934192D02*
X158002320Y-91215352D01*
X156982320Y-90934192D02*
X156982320Y-91215352D01*
D12*
%TO.C,J1*%
X148350000Y-96800000D02*
X148350000Y-95400000D01*
X148350000Y-95400000D02*
X149628000Y-95400000D01*
D11*
X165522000Y-95400000D02*
X167150000Y-95400000D01*
D12*
X167150000Y-100000000D02*
X167150000Y-100500000D01*
D11*
X165522000Y-95400000D02*
X165522000Y-94450000D01*
D12*
X167150000Y-96800000D02*
X167150000Y-95400000D01*
X148350000Y-100500000D02*
X148350000Y-100000000D01*
X167150000Y-100500000D02*
X148350000Y-100500000D01*
D11*
%TO.C,C16*%
X165722320Y-85684192D02*
X165722320Y-85965352D01*
X164702320Y-85684192D02*
X164702320Y-85965352D01*
%TO.C,C17*%
X164702320Y-90834192D02*
X164702320Y-91115352D01*
X165722320Y-90834192D02*
X165722320Y-91115352D01*
%TO.C,C15*%
X164022320Y-85684192D02*
X164022320Y-85965352D01*
X163002320Y-85684192D02*
X163002320Y-85965352D01*
%TD*%
%LPC*%
D13*
%TO.C,C14*%
X162712320Y-90224772D03*
X162712320Y-91774772D03*
%TD*%
%TO.C,C10*%
X157492320Y-85049772D03*
X157492320Y-86599772D03*
%TD*%
D14*
%TO.C,D1*%
X159342320Y-80574772D03*
X156042320Y-80574772D03*
%TD*%
D13*
%TO.C,C8*%
X154992320Y-84999772D03*
X154992320Y-86549772D03*
%TD*%
D15*
%TO.C,C13*%
X161862320Y-86599772D03*
X161862320Y-85049772D03*
%TD*%
%TO.C,C1*%
X151792320Y-91849772D03*
X151792320Y-90299772D03*
%TD*%
D13*
%TO.C,C9*%
X155892320Y-90299772D03*
X155892320Y-91849772D03*
%TD*%
D15*
%TO.C,C5*%
X150192320Y-91849772D03*
X150192320Y-90299772D03*
%TD*%
D13*
%TO.C,C12*%
X160212320Y-90249772D03*
X160212320Y-91799772D03*
%TD*%
%TO.C,C7*%
X153392320Y-84999772D03*
X153392320Y-86549772D03*
%TD*%
D15*
%TO.C,C11*%
X160212320Y-86599772D03*
X160212320Y-85049772D03*
%TD*%
D13*
%TO.C,C2*%
X150192320Y-85000088D03*
X150192320Y-86550088D03*
%TD*%
%TO.C,C3*%
X151792320Y-85000088D03*
X151792320Y-86550088D03*
%TD*%
%TO.C,C6*%
X153392320Y-90299772D03*
X153392320Y-91849772D03*
%TD*%
%TO.C,C4*%
X157492320Y-90299772D03*
X157492320Y-91849772D03*
%TD*%
D16*
%TO.C,J1*%
X165000000Y-95200000D03*
X164500000Y-95200000D03*
X164000000Y-95200000D03*
X163500000Y-95200000D03*
X163000000Y-95200000D03*
X162500000Y-95200000D03*
X162000000Y-95200000D03*
X161500000Y-95200000D03*
X161000000Y-95200000D03*
X160500000Y-95200000D03*
X160000000Y-95200000D03*
X159500000Y-95200000D03*
X159000000Y-95200000D03*
X158500000Y-95200000D03*
X158000000Y-95200000D03*
X157500000Y-95200000D03*
X157000000Y-95200000D03*
X156500000Y-95200000D03*
X156000000Y-95200000D03*
X155500000Y-95200000D03*
X155000000Y-95200000D03*
X154500000Y-95200000D03*
X154000000Y-95200000D03*
X153500000Y-95200000D03*
X153000000Y-95200000D03*
X152500000Y-95200000D03*
X152000000Y-95200000D03*
X151500000Y-95200000D03*
X151000000Y-95200000D03*
X150500000Y-95200000D03*
D17*
X149200000Y-98400000D03*
X166300000Y-98400000D03*
%TD*%
D13*
%TO.C,C16*%
X165212320Y-85049772D03*
X165212320Y-86599772D03*
%TD*%
%TO.C,C17*%
X165212320Y-90199772D03*
X165212320Y-91749772D03*
%TD*%
%TO.C,C15*%
X163512320Y-85049772D03*
X163512320Y-86599772D03*
%TD*%
D18*
%TO.C,J2*%
X148860000Y-70300000D03*
X151400000Y-70300000D03*
X153940000Y-70300000D03*
X156480000Y-70300000D03*
X159020000Y-70300000D03*
X161560000Y-70300000D03*
X164100000Y-70300000D03*
X166640000Y-70300000D03*
%TD*%
D19*
X162830000Y-77780000D03*
X162830000Y-75240000D03*
X165370000Y-77780000D03*
X150130000Y-72700000D03*
X165370000Y-72700000D03*
X162737800Y-89200000D03*
X160290000Y-80320000D03*
X162830000Y-101900000D03*
X157750000Y-75240000D03*
X152670000Y-101900000D03*
X150190200Y-89204800D03*
X160223200Y-89204800D03*
X162830000Y-80320000D03*
X152670000Y-80320000D03*
X155210000Y-75240000D03*
X165370000Y-96820000D03*
X165227000Y-83950000D03*
X165370000Y-75240000D03*
X152670000Y-77780000D03*
X160290000Y-83950000D03*
X160290000Y-101900000D03*
X157750000Y-77780000D03*
X152670000Y-72700000D03*
X155879800Y-89204800D03*
X155210000Y-77780000D03*
X157750000Y-83950000D03*
X162830000Y-72700000D03*
X163525200Y-83947000D03*
X155210000Y-72700000D03*
X150190200Y-83950000D03*
X157750000Y-101900000D03*
X155210000Y-83950000D03*
X165370000Y-80320000D03*
X150130000Y-75240000D03*
X157505400Y-89204800D03*
X150130000Y-80320000D03*
X155210000Y-101900000D03*
X150130000Y-96820000D03*
X162830000Y-96820000D03*
X165303200Y-89200000D03*
X160290000Y-75240000D03*
X151790400Y-89204800D03*
X157750000Y-96820000D03*
X152670000Y-75240000D03*
X150130000Y-101900000D03*
X160290000Y-96820000D03*
X151790400Y-83947000D03*
X165370000Y-101900000D03*
X157750000Y-72700000D03*
X150130000Y-77780000D03*
X160290000Y-72700000D03*
X160290000Y-77780000D03*
X157750000Y-80320000D03*
X152000000Y-98825000D03*
X152800000Y-98825000D03*
X153600000Y-98825000D03*
X154400000Y-98825000D03*
X155200000Y-98825000D03*
X156000000Y-98825000D03*
M02*
